<?xml version="1.0" encoding="UTF-8"?>
<svg version="1.1" xmlns="http://www.w3.org/2000/svg" width="64" height="64">
<path d="M0 0 C3.26928443 2.24834999 6.20403952 4.40807903 8 8 C8.57356916 12.83436867 8.64298357 15.81386932 5.625 19.75 C-0.43028914 26.04980201 -9.63401134 28.03950003 -18.09765625 28.23828125 C-43.8372387 28.71733786 -43.8372387 28.71733786 -53.79296875 19.3671875 C-56.25768234 16.57544071 -56.46780978 13.83074462 -56.39453125 10.16015625 C-55.63932954 6.02523996 -53.25219826 3.52237424 -50 1 C-36.08939717 -6.21776562 -13.94985056 -7.80810748 0 0 Z " fill="#A1A3D0" transform="translate(56,20)"/>
<path d="M0 0 C-3.62865585 1.20955195 -5.0474297 0.64105035 -8.6875 -0.375 C-13.4856043 -1.65177381 -18.06299864 -2.52528833 -23 -3 C-23.33 -0.69 -23.66 1.62 -24 4 C-23.05125 3.95875 -22.1025 3.9175 -21.125 3.875 C-18 4 -18 4 -16 6 C-15.98828125 8.09375 -15.98828125 8.09375 -16.3125 10.5 C-16.41175781 11.2940625 -16.51101562 12.088125 -16.61328125 12.90625 C-17 15 -17 15 -18 17 C-18.66 17 -19.32 17 -20 17 C-19.67 13.7 -19.34 10.4 -19 7 C-20.98 7 -22.96 7 -25 7 C-25.66 10.63 -26.32 14.26 -27 18 C-27.99 18 -28.98 18 -30 18 C-30.33 17.01 -30.66 16.02 -31 15 C-31.99 15.66 -32.98 16.32 -34 17 C-36.04296875 17.1953125 -36.04296875 17.1953125 -38.1875 17.125 C-39.445625 17.08375 -40.70375 17.0425 -42 17 C-42.33 18.98 -42.66 20.96 -43 23 C-46.3854337 23.47396072 -48.91707485 23.76814864 -51.80078125 21.72265625 C-54.60947683 18.7664874 -56.40366162 16.12384305 -56.75 12 C-56.3894924 7.95604516 -54.76004384 5.43368857 -51.984375 2.5390625 C-38.86510677 -7.63611798 -14.27209023 -7.01085134 0 0 Z " fill="#ACAED6" transform="translate(56,20)"/>
<path d="M0 0 C1.62463842 -0.05395478 3.24978541 -0.09277195 4.875 -0.125 C6.23238281 -0.15980469 6.23238281 -0.15980469 7.6171875 -0.1953125 C10 0 10 0 12 2 C12.42431591 5.81884318 12.5390434 8.12405448 10.5 11.4375 C6.86353539 13.71029038 4.24217465 13.28281164 0 13 C-0.33 14.98 -0.66 16.96 -1 19 C-1.99 19 -2.98 19 -4 19 C-2.89309248 12.59406714 -1.66054831 6.28636144 0 0 Z " fill="#F4F4F9" transform="translate(14,24)"/>
<path d="M0 0 C8.19256018 -0.4726477 8.19256018 -0.4726477 11.5625 1.5 C12.036875 1.995 12.51125 2.49 13 3 C12.69750921 6.32739873 12.28765829 8.5627594 10.4375 11.375 C6.85752867 13.76164755 4.24852974 13.28323532 0 13 C-0.33 14.98 -0.66 16.96 -1 19 C-1.99 19 -2.98 19 -4 19 C-3.566875 17.081875 -3.566875 17.081875 -3.125 15.125 C-2.00617536 10.09828073 -0.9916404 5.05314632 0 0 Z " fill="#F5F5FA" transform="translate(42,24)"/>
<path d="M0 0 C0.99 0 1.98 0 3 0 C3 1.65 3 3.3 3 5 C3.94875 4.95875 4.8975 4.9175 5.875 4.875 C9 5 9 5 11 7 C11.01171875 9.09375 11.01171875 9.09375 10.6875 11.5 C10.58824219 12.2940625 10.48898438 13.088125 10.38671875 13.90625 C10 16 10 16 9 18 C8.34 18 7.68 18 7 18 C7.33 14.7 7.66 11.4 8 8 C6.02 8 4.04 8 2 8 C1.34 11.3 0.68 14.6 0 18 C-0.66 18 -1.32 18 -2 18 C-1.48758893 11.97099313 -0.930215 5.97995357 0 0 Z " fill="#F6F6FA" transform="translate(29,19)"/>
<path d="M0 0 C0.33 1.32 0.66 2.64 1 4 C4.35433109 3.05066101 7.69246505 2.10251165 11 1 C10.625 2.9375 10.625 2.9375 10 5 C6.78548731 6.60725635 3.56387464 6.05748185 0 6 C-0.33 7.98 -0.66 9.96 -1 12 C-1.99 12 -2.98 12 -4 12 C-3.71905418 10.1858073 -3.42493567 8.37364999 -3.125 6.5625 C-2.96257813 5.55316406 -2.80015625 4.54382812 -2.6328125 3.50390625 C-2.42398437 2.67761719 -2.21515625 1.85132813 -2 1 C-1.34 0.67 -0.68 0.34 0 0 Z " fill="#FAFAFC" transform="translate(14,31)"/>
<path d="M0 0 C1.98 0 3.96 0 6 0 C6.6875 1.75 6.6875 1.75 7 4 C5.9375 6.25 5.9375 6.25 4 8 C0.8125 8.25 0.8125 8.25 -2 8 C-1.34 5.36 -0.68 2.72 0 0 Z " fill="#A4A6D2" transform="translate(45,27)"/>
<path d="M0 0 C1.98 0 3.96 0 6 0 C6.6875 1.75 6.6875 1.75 7 4 C5.9375 6.25 5.9375 6.25 4 8 C0.8125 8.25 0.8125 8.25 -2 8 C-1.34 5.36 -0.68 2.72 0 0 Z " fill="#ACAED6" transform="translate(17,27)"/>
<path d="M0 0 C0.33 0.66 0.66 1.32 1 2 C1.66 2 2.32 2 3 2 C2.67 3.65 2.34 5.3 2 7 C1.01 7 0.02 7 -1 7 C-0.67 4.69 -0.34 2.38 0 0 Z " fill="#E9EAF4" transform="translate(11,36)"/>
</svg>
