<?xml version="1.0" encoding="UTF-8"?>
<svg version="1.1" xmlns="http://www.w3.org/2000/svg" width="50" height="50">
<path d="M0 0 C0.69931641 -0.020625 1.39863281 -0.04125 2.11914062 -0.0625 C6.91804328 -0.09841321 10.11040737 0.73914475 14.1875 3.25 C16.1875 5.25 16.1875 5.25 16.625 8.125 C16.1875 11.25 16.1875 11.25 13.875 13.5625 C9.4080058 16.36735682 5.49902968 16.46283569 0.375 16.5 C-0.67397461 16.5309375 -0.67397461 16.5309375 -1.74414062 16.5625 C-6.54304328 16.59841321 -9.73540737 15.76085525 -13.8125 13.25 C-15.8125 11.25 -15.8125 11.25 -16.25 8.375 C-15.8125 5.25 -15.8125 5.25 -13.5 2.9375 C-9.0330058 0.13264318 -5.12402968 0.03716431 0 0 Z " fill="#ADAFD6" transform="translate(15.8125,7.75)"/>
<path d="M0 0 C3.33746902 0.08612823 4.7111454 0.38754654 7.75 2 C9.6875 4.375 9.6875 4.375 10.3125 7.375 C9.6875 10.375 9.6875 10.375 7.375 12.6875 C2.84094726 15.53446335 -1.11676713 15.55787746 -6.3125 15.5625 C-7.03695313 15.57474609 -7.76140625 15.58699219 -8.5078125 15.59960938 C-12.31950298 15.61015833 -14.0661304 15.5392464 -17.3125 13.375 C-16.6525 13.375 -15.9925 13.375 -15.3125 13.375 C-15.3125 12.385 -15.3125 11.395 -15.3125 10.375 C-13.3325 9.715 -11.3525 9.055 -9.3125 8.375 C-9.3125 9.035 -9.3125 9.695 -9.3125 10.375 C-8.6525 10.375 -7.9925 10.375 -7.3125 10.375 C-7.3125 8.725 -7.3125 7.075 -7.3125 5.375 C-6.3225 5.045 -5.3325 4.715 -4.3125 4.375 C-3.9825 7.015 -3.6525 9.655 -3.3125 12.375 C-2.6525 12.375 -1.9925 12.375 -1.3125 12.375 C-1.3125 11.715 -1.3125 11.055 -1.3125 10.375 C0.3375 9.715 1.9875 9.055 3.6875 8.375 C3.6875 7.055 3.6875 5.735 3.6875 4.375 C1.2125 3.88 1.2125 3.88 -1.3125 3.375 C-1.6425 4.035 -1.9725 4.695 -2.3125 5.375 C-3.6325 4.385 -4.9525 3.395 -6.3125 2.375 C-3.93025072 -0.00724928 -3.2622963 0.05482851 0 0 Z " fill="#A0A2CF" transform="translate(22.3125,8.625)"/>
<path d="M0 0 C0.33 0.99 0.66 1.98 1 3 C2.96128755 3.8237956 2.96128755 3.8237956 5 4 C5.33 3.67 5.66 3.34 6 3 C7.66617115 2.95936168 9.33388095 2.957279 11 3 C11.625 5.375 11.625 5.375 12 8 C11.34 8.66 10.68 9.32 10 10 C8.68 10 7.36 10 6 10 C6 10.66 6 11.32 6 12 C5.34 12 4.68 12 4 12 C2.64560332 9.29120665 2.93498549 6.99066732 3 4 C0.5 5 0.5 5 -1 9 C-0.67 6.03 -0.34 3.06 0 0 Z " fill="#D7D8EB" transform="translate(15,9)"/>
<path d="M0 0 C1.65 0 3.3 0 5 0 C5.625 2.375 5.625 2.375 6 5 C5.34 5.66 4.68 6.32 4 7 C2.68 7 1.36 7 0 7 C0 7.66 0 8.32 0 9 C-0.66 9 -1.32 9 -2 9 C-1.34 6.03 -0.68 3.06 0 0 Z " fill="#DADBED" transform="translate(7,12)"/>
<path d="M0 0 C0.33 0.99 0.66 1.98 1 3 C3.01508358 3.73323796 3.01508358 3.73323796 5 4 C4.67 4.99 4.34 5.98 4 7 C3.67 6.34 3.34 5.68 3 5 C2.34 5 1.68 5 1 5 C0.34 6.32 -0.32 7.64 -1 9 C-0.67 6.03 -0.34 3.06 0 0 Z " fill="#F3F3F9" transform="translate(15,9)"/>
</svg>
